<svg width="64" height="64" viewBox="0 0 64 64" xmlns="http://www.w3.org/2000/svg">
  <!-- Background circle for better visibility on both themes -->
  <circle cx="32" cy="32" r="30" fill="#2563eb" opacity="0.9"/>
  
  <!-- People icons - white stroke -->
  <g stroke="#ffffff" stroke-width="3" fill="none">
    <!-- Person 1 -->
    <circle cx="14" cy="18" r="5"/>
    <path d="M14 23v10 M9 40h10"/>
    
    <!-- Person 2 -->
    <circle cx="32" cy="14" r="5"/>
    <path d="M32 19v10 M25 36h14"/>
    
    <!-- Person 3 -->
    <circle cx="50" cy="18" r="5"/>
    <path d="M50 23v10 M45 40h10"/>
  </g>
  
  <!-- Blockchain blocks - bright cyan fill -->
  <g transform="translate(32,44)">
    <rect x="-16" y="-8" width="12" height="12" rx="3" fill="#06b6d4"/>
    <rect x="-4" y="-8" width="12" height="12" rx="3" fill="#06b6d4"/>
    <rect x="8" y="-8" width="12" height="12" rx="3" fill="#06b6d4"/>
    
    <!-- Links -->
    <path d="M-10 0h12 M4 0h12" stroke="#ffffff" stroke-width="3" stroke-linecap="round"/>
  </g>
  
  <!-- Connections - white dashed -->
  <g stroke="#ffffff" stroke-width="2" fill="none" stroke-dasharray="6,4">
    <path d="M14 18 Q24 32 16 38"/>
    <path d="M32 19v20"/>
    <path d="M50 18 Q40 32 48 38"/>
  </g>
</svg>